<svg width="300" height="39" viewBox="0 0 300 39" fill="none" xmlns="http://www.w3.org/2000/svg">
<path d="M0.632 4.016C1.432 4.048 2.504 4.08 3.848 4.112C5.224 4.144 6.584 4.16 7.928 4.16C9.464 4.16 10.952 4.144 12.392 4.112C13.832 4.08 14.856 4.064 15.464 4.064C18.44 4.064 20.904 4.4 22.856 5.072C24.84 5.712 26.312 6.656 27.272 7.904C28.264 9.152 28.76 10.656 28.76 12.416C28.76 13.504 28.536 14.608 28.088 15.728C27.64 16.816 26.872 17.84 25.784 18.8C24.728 19.728 23.272 20.48 21.416 21.056C19.56 21.6 17.224 21.872 14.408 21.872H9.8V20.912H13.928C15.816 20.912 17.24 20.56 18.2 19.856C19.192 19.12 19.864 18.16 20.216 16.976C20.6 15.76 20.792 14.416 20.792 12.944C20.792 10.416 20.344 8.464 19.448 7.088C18.552 5.68 17.016 4.976 14.84 4.976C13.592 4.976 12.776 5.248 12.392 5.792C12.04 6.336 11.864 7.44 11.864 9.104V32.912C11.864 34.064 11.944 34.928 12.104 35.504C12.296 36.08 12.648 36.464 13.16 36.656C13.672 36.848 14.44 36.976 15.464 37.04V38C14.6 37.936 13.512 37.904 12.2 37.904C10.888 37.872 9.56 37.856 8.216 37.856C6.68 37.856 5.224 37.872 3.848 37.904C2.504 37.904 1.432 37.936 0.632 38V37.04C1.656 36.976 2.424 36.848 2.936 36.656C3.448 36.464 3.784 36.08 3.944 35.504C4.136 34.928 4.232 34.064 4.232 32.912V9.104C4.232 7.92 4.136 7.056 3.944 6.512C3.784 5.936 3.432 5.552 2.888 5.36C2.376 5.136 1.624 5.008 0.632 4.976V4.016ZM9.704 21.056C11.08 21.088 12.264 21.152 13.256 21.248C14.28 21.344 15.176 21.44 15.944 21.536C16.712 21.6 17.4 21.648 18.008 21.68C20.92 21.936 23.064 22.56 24.44 23.552C25.848 24.544 26.76 26.032 27.176 28.016L28.28 32.96C28.568 34.24 28.872 35.136 29.192 35.648C29.512 36.16 29.976 36.416 30.584 36.416C31 36.384 31.336 36.288 31.592 36.128C31.88 35.936 32.184 35.664 32.504 35.312L33.176 35.888C32.312 36.88 31.384 37.584 30.392 38C29.4 38.448 28.2 38.672 26.792 38.672C25.064 38.672 23.64 38.304 22.52 37.568C21.4 36.832 20.664 35.472 20.312 33.488L19.448 28.688C19.224 27.344 18.952 26.176 18.632 25.184C18.312 24.16 17.864 23.36 17.288 22.784C16.744 22.176 15.976 21.872 14.984 21.872H9.8L9.704 21.056ZM39.6264 0.799998C40.9704 0.799998 42.0264 1.136 42.7944 1.808C43.5944 2.448 43.9944 3.344 43.9944 4.496C43.9944 5.648 43.5944 6.56 42.7944 7.232C42.0264 7.872 40.9704 8.192 39.6264 8.192C38.2824 8.192 37.2104 7.872 36.4104 7.232C35.6424 6.56 35.2584 5.648 35.2584 4.496C35.2584 3.344 35.6424 2.448 36.4104 1.808C37.2104 1.136 38.2824 0.799998 39.6264 0.799998ZM43.3704 12.656V33.536C43.3704 34.88 43.5944 35.792 44.0424 36.272C44.5224 36.752 45.3224 36.992 46.4424 36.992V38C45.8664 37.968 44.9704 37.936 43.7544 37.904C42.5384 37.84 41.3064 37.808 40.0584 37.808C38.8104 37.808 37.5464 37.84 36.2664 37.904C34.9864 37.936 34.0264 37.968 33.3864 38V36.992C34.5064 36.992 35.2904 36.752 35.7384 36.272C36.2184 35.792 36.4584 34.88 36.4584 33.536V18.416C36.4584 16.976 36.2344 15.92 35.7864 15.248C35.3704 14.544 34.5704 14.192 33.3864 14.192V13.184C34.4104 13.28 35.4024 13.328 36.3624 13.328C37.7064 13.328 38.9544 13.28 40.1064 13.184C41.2904 13.056 42.3784 12.88 43.3704 12.656ZM61.007 12.512C62.255 12.512 63.391 12.656 64.415 12.944C65.471 13.2 66.335 13.536 67.007 13.952C67.839 14.464 68.479 15.104 68.927 15.872C69.407 16.608 69.647 17.472 69.647 18.464C69.647 19.584 69.295 20.512 68.591 21.248C67.887 21.952 66.975 22.304 65.855 22.304C64.735 22.304 63.839 21.984 63.167 21.344C62.495 20.704 62.159 19.84 62.159 18.752C62.159 17.728 62.479 16.88 63.119 16.208C63.759 15.504 64.495 15.04 65.327 14.816C65.071 14.496 64.687 14.224 64.175 14C63.663 13.776 63.087 13.664 62.447 13.664C61.455 13.664 60.575 13.952 59.807 14.528C59.071 15.104 58.447 15.904 57.935 16.928C57.423 17.952 57.023 19.152 56.735 20.528C56.479 21.904 56.351 23.408 56.351 25.04C56.351 27.504 56.655 29.44 57.263 30.848C57.903 32.256 58.703 33.248 59.663 33.824C60.655 34.4 61.679 34.688 62.735 34.688C63.343 34.688 63.999 34.592 64.703 34.4C65.439 34.208 66.175 33.824 66.911 33.248C67.679 32.672 68.383 31.856 69.023 30.8L69.839 31.088C69.487 32.272 68.911 33.456 68.111 34.64C67.311 35.824 66.271 36.8 64.991 37.568C63.711 38.304 62.143 38.672 60.287 38.672C58.207 38.672 56.319 38.224 54.623 37.328C52.959 36.4 51.615 34.992 50.591 33.104C49.599 31.184 49.103 28.72 49.103 25.712C49.103 22.832 49.615 20.416 50.639 18.464C51.695 16.48 53.119 14.992 54.911 14C56.703 13.008 58.735 12.512 61.007 12.512ZM82.0835 0.463997V16.976C82.8835 15.312 83.9555 14.16 85.2995 13.52C86.6755 12.848 88.2115 12.512 89.9075 12.512C91.2835 12.512 92.3875 12.688 93.2195 13.04C94.0515 13.36 94.7075 13.808 95.1875 14.384C95.7315 14.992 96.1155 15.776 96.3395 16.736C96.5955 17.696 96.7235 18.992 96.7235 20.624V33.536C96.7235 34.88 96.9475 35.792 97.3955 36.272C97.8755 36.752 98.6755 36.992 99.7955 36.992V38C99.1875 37.968 98.2595 37.936 97.0115 37.904C95.7955 37.84 94.6115 37.808 93.4595 37.808C92.2115 37.808 90.9955 37.84 89.8115 37.904C88.6595 37.936 87.7955 37.968 87.2195 38V36.992C88.1795 36.992 88.8515 36.752 89.2355 36.272C89.6195 35.792 89.8115 34.88 89.8115 33.536V18.608C89.8115 17.808 89.7315 17.12 89.5715 16.544C89.4115 15.936 89.1075 15.472 88.6595 15.152C88.2435 14.8 87.6355 14.624 86.8355 14.624C85.9715 14.624 85.1715 14.864 84.4355 15.344C83.7315 15.792 83.1555 16.432 82.7075 17.264C82.2915 18.096 82.0835 19.056 82.0835 20.144V33.536C82.0835 34.88 82.2755 35.792 82.6595 36.272C83.0435 36.752 83.7155 36.992 84.6755 36.992V38C84.0995 37.968 83.2515 37.936 82.1315 37.904C81.0115 37.84 79.8755 37.808 78.7235 37.808C77.4755 37.808 76.2115 37.84 74.9315 37.904C73.6835 37.936 72.7395 37.968 72.0995 38V36.992C73.2195 36.992 74.0035 36.752 74.4515 36.272C74.9315 35.792 75.1715 34.88 75.1715 33.536V6.224C75.1715 4.784 74.9475 3.728 74.4995 3.056C74.0835 2.352 73.2835 2 72.0995 2V0.991999C73.1235 1.088 74.1155 1.136 75.0755 1.136C76.3875 1.136 77.6355 1.088 78.8195 0.991999C80.0035 0.863998 81.0915 0.687998 82.0835 0.463997ZM108.167 38.336C106.727 38.336 105.527 38.064 104.567 37.52C103.607 36.976 102.903 36.256 102.455 35.36C102.007 34.432 101.783 33.424 101.783 32.336C101.783 30.96 102.087 29.84 102.695 28.976C103.335 28.112 104.151 27.408 105.143 26.864C106.135 26.32 107.175 25.872 108.263 25.52C109.383 25.168 110.439 24.832 111.431 24.512C112.455 24.16 113.271 23.76 113.879 23.312C114.519 22.832 114.839 22.224 114.839 21.488V17.744C114.839 16.912 114.695 16.176 114.407 15.536C114.151 14.864 113.735 14.352 113.159 14C112.615 13.648 111.895 13.472 110.999 13.472C110.359 13.472 109.719 13.568 109.079 13.76C108.439 13.92 107.911 14.208 107.495 14.624C108.391 14.944 109.079 15.44 109.559 16.112C110.071 16.752 110.327 17.488 110.327 18.32C110.327 19.408 109.943 20.272 109.175 20.912C108.439 21.552 107.559 21.872 106.535 21.872C105.383 21.872 104.503 21.52 103.895 20.816C103.319 20.08 103.031 19.2 103.031 18.176C103.031 17.248 103.255 16.48 103.703 15.872C104.183 15.264 104.839 14.688 105.671 14.144C106.567 13.632 107.639 13.232 108.887 12.944C110.167 12.656 111.543 12.512 113.015 12.512C114.487 12.512 115.815 12.672 116.999 12.992C118.183 13.28 119.175 13.824 119.975 14.624C120.711 15.36 121.191 16.272 121.415 17.36C121.639 18.416 121.751 19.76 121.751 21.392V34.448C121.751 35.248 121.831 35.808 121.991 36.128C122.151 36.416 122.423 36.56 122.807 36.56C123.095 36.56 123.367 36.48 123.623 36.32C123.911 36.16 124.215 35.968 124.535 35.744L125.015 36.56C124.343 37.136 123.559 37.584 122.663 37.904C121.799 38.192 120.823 38.336 119.735 38.336C118.551 38.336 117.607 38.176 116.903 37.856C116.199 37.504 115.687 37.04 115.367 36.464C115.079 35.888 114.935 35.216 114.935 34.448C114.167 35.664 113.239 36.624 112.151 37.328C111.063 38 109.735 38.336 108.167 38.336ZM111.575 35.264C112.215 35.264 112.791 35.12 113.303 34.832C113.847 34.512 114.359 34 114.839 33.296V23.456C114.551 23.936 114.151 24.368 113.639 24.752C113.127 25.136 112.583 25.536 112.007 25.952C111.431 26.336 110.871 26.768 110.327 27.248C109.815 27.728 109.399 28.32 109.079 29.024C108.759 29.728 108.599 30.576 108.599 31.568C108.599 32.816 108.871 33.744 109.415 34.352C109.959 34.96 110.679 35.264 111.575 35.264ZM142.898 12.512C143.922 12.512 144.754 12.736 145.394 13.184C146.034 13.6 146.498 14.144 146.786 14.816C147.106 15.488 147.266 16.192 147.266 16.928C147.266 18.112 146.914 19.088 146.21 19.856C145.538 20.592 144.642 20.96 143.522 20.96C142.402 20.96 141.522 20.688 140.882 20.144C140.274 19.568 139.97 18.816 139.97 17.888C139.97 16.992 140.162 16.256 140.546 15.68C140.962 15.072 141.474 14.56 142.082 14.144C141.634 14.016 141.186 14.032 140.738 14.192C140.13 14.288 139.554 14.544 139.01 14.96C138.466 15.344 138.002 15.84 137.618 16.448C137.234 17.024 136.93 17.664 136.706 18.368C136.482 19.04 136.37 19.696 136.37 20.336V33.056C136.37 34.592 136.738 35.632 137.474 36.176C138.242 36.72 139.378 36.992 140.882 36.992V38C140.146 37.968 139.074 37.936 137.666 37.904C136.258 37.84 134.786 37.808 133.25 37.808C131.97 37.808 130.674 37.84 129.362 37.904C128.05 37.936 127.058 37.968 126.386 38V36.992C127.506 36.992 128.29 36.752 128.738 36.272C129.218 35.792 129.458 34.88 129.458 33.536V18.416C129.458 16.976 129.234 15.92 128.786 15.248C128.37 14.544 127.57 14.192 126.386 14.192V13.184C127.41 13.28 128.402 13.328 129.362 13.328C130.706 13.328 131.954 13.28 133.106 13.184C134.29 13.056 135.378 12.88 136.37 12.656V17.12C136.754 16.256 137.266 15.472 137.906 14.768C138.546 14.064 139.282 13.52 140.114 13.136C140.946 12.72 141.874 12.512 142.898 12.512ZM171.752 0.415998V32.72C171.752 34.16 171.976 35.232 172.424 35.936C172.872 36.608 173.672 36.944 174.824 36.944V37.952C173.832 37.856 172.84 37.808 171.848 37.808C170.504 37.808 169.24 37.856 168.056 37.952C166.904 38.048 165.832 38.224 164.84 38.48V6.176C164.84 4.736 164.616 3.68 164.168 3.008C163.752 2.304 162.952 1.952 161.768 1.952V0.943999C162.792 1.04 163.784 1.088 164.744 1.088C166.056 1.088 167.304 1.04 168.488 0.943999C169.672 0.815999 170.76 0.639998 171.752 0.415998ZM159.512 12.512C160.92 12.512 162.152 12.752 163.208 13.232C164.296 13.68 165.144 14.448 165.752 15.536L165.176 16.064C164.76 15.296 164.2 14.752 163.496 14.432C162.824 14.08 162.104 13.904 161.336 13.904C159.704 13.904 158.408 14.864 157.448 16.784C156.488 18.672 156.024 21.6 156.056 25.568C156.056 28.288 156.232 30.464 156.584 32.096C156.968 33.696 157.496 34.848 158.168 35.552C158.872 36.256 159.672 36.608 160.568 36.608C161.656 36.608 162.632 36.176 163.496 35.312C164.36 34.448 164.824 33.28 164.888 31.808L165.128 33.488C164.648 35.184 163.864 36.48 162.776 37.376C161.72 38.24 160.328 38.672 158.6 38.672C156.712 38.672 155.016 38.208 153.512 37.28C152.04 36.352 150.888 34.928 150.056 33.008C149.224 31.056 148.808 28.544 148.808 25.472C148.808 22.56 149.272 20.16 150.2 18.272C151.128 16.352 152.392 14.912 153.992 13.952C155.624 12.992 157.464 12.512 159.512 12.512ZM203.627 4.016V4.976C202.539 5.008 201.707 5.136 201.131 5.36C200.587 5.552 200.219 5.936 200.027 6.512C199.835 7.056 199.739 7.92 199.739 9.104V33.488C199.739 34.48 199.803 35.216 199.931 35.696C200.091 36.176 200.379 36.496 200.795 36.656C201.243 36.816 201.899 36.896 202.763 36.896H205.115C206.203 36.896 207.227 36.64 208.187 36.128C209.147 35.616 210.011 34.896 210.779 33.968C211.547 33.008 212.187 31.872 212.699 30.56C213.211 29.248 213.595 27.792 213.851 26.192H214.955C214.859 27.28 214.811 28.688 214.811 30.416C214.811 31.152 214.827 32.224 214.859 33.632C214.891 35.04 214.987 36.496 215.147 38C213.515 37.936 211.675 37.904 209.627 37.904C207.579 37.872 205.755 37.856 204.155 37.856C203.355 37.856 202.331 37.856 201.083 37.856C199.835 37.856 198.491 37.872 197.051 37.904C195.611 37.904 194.155 37.92 192.683 37.952C191.211 37.952 189.819 37.968 188.507 38V37.04C189.531 36.976 190.299 36.848 190.811 36.656C191.323 36.464 191.659 36.08 191.819 35.504C192.011 34.928 192.107 34.064 192.107 32.912V9.104C192.107 7.92 192.011 7.056 191.819 6.512C191.659 5.936 191.307 5.552 190.763 5.36C190.251 5.136 189.499 5.008 188.507 4.976V4.016C189.307 4.048 190.379 4.08 191.723 4.112C193.099 4.144 194.555 4.16 196.091 4.16C197.499 4.16 198.875 4.144 200.219 4.112C201.595 4.08 202.731 4.048 203.627 4.016ZM223.611 0.799998C224.955 0.799998 226.011 1.136 226.779 1.808C227.579 2.448 227.979 3.344 227.979 4.496C227.979 5.648 227.579 6.56 226.779 7.232C226.011 7.872 224.955 8.192 223.611 8.192C222.267 8.192 221.195 7.872 220.395 7.232C219.627 6.56 219.243 5.648 219.243 4.496C219.243 3.344 219.627 2.448 220.395 1.808C221.195 1.136 222.267 0.799998 223.611 0.799998ZM227.355 12.656V33.536C227.355 34.88 227.579 35.792 228.027 36.272C228.507 36.752 229.307 36.992 230.427 36.992V38C229.851 37.968 228.955 37.936 227.739 37.904C226.523 37.84 225.291 37.808 224.043 37.808C222.795 37.808 221.531 37.84 220.251 37.904C218.971 37.936 218.011 37.968 217.371 38V36.992C218.491 36.992 219.275 36.752 219.723 36.272C220.203 35.792 220.443 34.88 220.443 33.536V18.416C220.443 16.976 220.219 15.92 219.771 15.248C219.355 14.544 218.555 14.192 217.371 14.192V13.184C218.395 13.28 219.387 13.328 220.347 13.328C221.691 13.328 222.939 13.28 224.091 13.184C225.275 13.056 226.363 12.88 227.355 12.656ZM249.935 12.512C251.279 12.512 252.367 12.688 253.199 13.04C254.031 13.36 254.703 13.808 255.215 14.384C255.727 14.992 256.095 15.792 256.319 16.784C256.543 17.744 256.655 19.024 256.655 20.624V33.536C256.655 34.88 256.863 35.792 257.279 36.272C257.695 36.752 258.415 36.992 259.439 36.992V38C258.863 37.968 257.983 37.936 256.799 37.904C255.647 37.84 254.511 37.808 253.391 37.808C252.239 37.808 251.103 37.84 249.983 37.904C248.863 37.936 248.015 37.968 247.439 38V36.992C248.303 36.992 248.895 36.752 249.215 36.272C249.567 35.792 249.743 34.88 249.743 33.536V18.608C249.743 17.808 249.679 17.12 249.551 16.544C249.423 15.936 249.167 15.472 248.783 15.152C248.431 14.8 247.887 14.624 247.151 14.624C246.319 14.624 245.551 14.864 244.847 15.344C244.143 15.824 243.567 16.496 243.119 17.36C242.703 18.192 242.495 19.136 242.495 20.192V33.536C242.495 34.88 242.671 35.792 243.023 36.272C243.375 36.752 243.967 36.992 244.799 36.992V38C244.287 37.968 243.487 37.936 242.399 37.904C241.343 37.84 240.255 37.808 239.135 37.808C237.919 37.808 236.671 37.84 235.391 37.904C234.111 37.936 233.151 37.968 232.511 38V36.992C233.631 36.992 234.415 36.752 234.863 36.272C235.343 35.792 235.583 34.88 235.583 33.536V18.416C235.583 16.976 235.359 15.92 234.911 15.248C234.495 14.544 233.695 14.192 232.511 14.192V13.184C233.535 13.28 234.527 13.328 235.487 13.328C236.831 13.328 238.079 13.28 239.231 13.184C240.415 13.056 241.503 12.88 242.495 12.656V16.976C243.263 15.376 244.303 14.24 245.615 13.568C246.927 12.864 248.367 12.512 249.935 12.512ZM264.383 12.512C265.727 12.512 266.815 12.688 267.647 13.04C268.479 13.36 269.151 13.808 269.663 14.384C270.175 14.992 270.543 15.792 270.767 16.784C270.991 17.744 271.103 19.024 271.103 20.624V33.536C271.103 34.88 271.327 35.792 271.775 36.272C272.255 36.752 273.055 36.992 274.175 36.992V38C273.567 37.968 272.655 37.936 271.439 37.904C270.223 37.84 269.023 37.808 267.839 37.808C266.687 37.808 265.551 37.84 264.431 37.904C263.311 37.936 262.463 37.968 261.887 38V36.992C262.751 36.992 263.343 36.752 263.663 36.272C264.015 35.792 264.191 34.88 264.191 33.536V18.608C264.191 17.808 264.111 17.12 263.951 16.544C263.823 15.936 263.551 15.472 263.135 15.152C262.751 14.8 262.143 14.624 261.311 14.624C260.479 14.624 259.711 14.88 259.007 15.392C258.303 15.904 257.727 16.592 257.279 17.456C256.863 18.32 256.639 19.28 256.607 20.336L256.367 17.408C257.231 15.488 258.367 14.192 259.775 13.52C261.215 12.848 262.751 12.512 264.383 12.512ZM282.589 38.336C281.149 38.336 279.949 38.064 278.989 37.52C278.029 36.976 277.325 36.256 276.877 35.36C276.429 34.432 276.205 33.424 276.205 32.336C276.205 30.96 276.509 29.84 277.117 28.976C277.757 28.112 278.573 27.408 279.565 26.864C280.557 26.32 281.597 25.872 282.685 25.52C283.805 25.168 284.861 24.832 285.853 24.512C286.877 24.16 287.693 23.76 288.301 23.312C288.941 22.832 289.261 22.224 289.261 21.488V17.744C289.261 16.912 289.117 16.176 288.829 15.536C288.573 14.864 288.157 14.352 287.581 14C287.037 13.648 286.317 13.472 285.421 13.472C284.781 13.472 284.141 13.568 283.501 13.76C282.861 13.92 282.333 14.208 281.917 14.624C282.813 14.944 283.501 15.44 283.981 16.112C284.493 16.752 284.749 17.488 284.749 18.32C284.749 19.408 284.365 20.272 283.597 20.912C282.861 21.552 281.981 21.872 280.957 21.872C279.805 21.872 278.925 21.52 278.317 20.816C277.741 20.08 277.453 19.2 277.453 18.176C277.453 17.248 277.677 16.48 278.125 15.872C278.605 15.264 279.261 14.688 280.093 14.144C280.989 13.632 282.061 13.232 283.309 12.944C284.589 12.656 285.965 12.512 287.437 12.512C288.909 12.512 290.237 12.672 291.421 12.992C292.605 13.28 293.597 13.824 294.397 14.624C295.133 15.36 295.613 16.272 295.837 17.36C296.061 18.416 296.173 19.76 296.173 21.392V34.448C296.173 35.248 296.253 35.808 296.413 36.128C296.573 36.416 296.845 36.56 297.229 36.56C297.517 36.56 297.789 36.48 298.045 36.32C298.333 36.16 298.637 35.968 298.957 35.744L299.437 36.56C298.765 37.136 297.981 37.584 297.085 37.904C296.221 38.192 295.245 38.336 294.157 38.336C292.973 38.336 292.029 38.176 291.325 37.856C290.621 37.504 290.109 37.04 289.789 36.464C289.501 35.888 289.357 35.216 289.357 34.448C288.589 35.664 287.661 36.624 286.573 37.328C285.485 38 284.157 38.336 282.589 38.336ZM285.997 35.264C286.637 35.264 287.213 35.12 287.725 34.832C288.269 34.512 288.781 34 289.261 33.296V23.456C288.973 23.936 288.573 24.368 288.061 24.752C287.549 25.136 287.005 25.536 286.429 25.952C285.853 26.336 285.293 26.768 284.749 27.248C284.237 27.728 283.821 28.32 283.501 29.024C283.181 29.728 283.021 30.576 283.021 31.568C283.021 32.816 283.293 33.744 283.837 34.352C284.381 34.96 285.101 35.264 285.997 35.264Z" fill="#141414"/>
</svg>
