<svg width="271" height="39" viewBox="0 0 271 39" fill="none" xmlns="http://www.w3.org/2000/svg">
<path d="M15.464 4.016C21.768 4.016 26.456 5.456 29.528 8.336C32.6 11.184 34.136 15.28 34.136 20.624C34.136 24.112 33.384 27.168 31.88 29.792C30.376 32.384 28.184 34.4 25.304 35.84C22.456 37.28 19.032 38 15.032 38C14.52 38 13.848 37.984 13.016 37.952C12.184 37.92 11.32 37.904 10.424 37.904C9.528 37.872 8.728 37.856 8.024 37.856C6.616 37.856 5.224 37.872 3.848 37.904C2.504 37.904 1.432 37.936 0.632 38V37.04C1.656 36.976 2.424 36.848 2.936 36.656C3.448 36.464 3.784 36.08 3.944 35.504C4.136 34.928 4.232 34.064 4.232 32.912V9.104C4.232 7.92 4.136 7.056 3.944 6.512C3.784 5.936 3.432 5.552 2.888 5.36C2.376 5.136 1.624 5.008 0.632 4.976V4.016C1.432 4.048 2.504 4.096 3.848 4.16C5.224 4.192 6.584 4.192 7.928 4.16C9.08 4.128 10.376 4.096 11.816 4.064C13.288 4.032 14.504 4.016 15.464 4.016ZM15.416 4.88C13.944 4.88 12.984 5.152 12.536 5.696C12.088 6.24 11.864 7.344 11.864 9.008V33.008C11.864 34.672 12.088 35.776 12.536 36.32C13.016 36.864 13.992 37.136 15.464 37.136C18.152 37.136 20.264 36.512 21.8 35.264C23.368 33.984 24.488 32.128 25.16 29.696C25.832 27.264 26.168 24.304 26.168 20.816C26.168 17.232 25.8 14.272 25.064 11.936C24.36 9.568 23.224 7.808 21.656 6.656C20.088 5.472 18.008 4.88 15.416 4.88ZM49.8016 12.512C52.6176 12.512 54.8256 13.344 56.4256 15.008C58.0256 16.672 58.8256 19.392 58.8256 23.168H43.0336L42.9376 22.256H52.7776C52.8096 20.688 52.7136 19.248 52.4896 17.936C52.2656 16.592 51.9136 15.52 51.4336 14.72C50.9536 13.92 50.3136 13.52 49.5136 13.52C48.3936 13.52 47.4336 14.224 46.6336 15.632C45.8656 17.04 45.4016 19.376 45.2416 22.64L45.3856 22.928C45.3536 23.312 45.3216 23.712 45.2896 24.128C45.2896 24.544 45.2896 24.976 45.2896 25.424C45.2896 27.632 45.5936 29.424 46.2016 30.8C46.8416 32.176 47.6416 33.184 48.6016 33.824C49.5616 34.432 50.5376 34.736 51.5296 34.736C52.2016 34.736 52.8896 34.64 53.5936 34.448C54.3296 34.224 55.0656 33.84 55.8016 33.296C56.5376 32.72 57.2256 31.92 57.8656 30.896L58.7296 31.184C58.3456 32.4 57.7376 33.584 56.9056 34.736C56.0736 35.888 55.0176 36.832 53.7376 37.568C52.4576 38.304 50.9216 38.672 49.1296 38.672C46.9536 38.672 45.0336 38.208 43.3696 37.28C41.7056 36.352 40.3936 34.944 39.4336 33.056C38.5056 31.168 38.0416 28.768 38.0416 25.856C38.0416 22.88 38.5376 20.4 39.5296 18.416C40.5536 16.432 41.9456 14.96 43.7056 14C45.4976 13.008 47.5296 12.512 49.8016 12.512ZM84.3204 13.184V14.144C83.7124 14.304 83.1364 14.688 82.5924 15.296C82.0484 15.872 81.5204 16.864 81.0084 18.272L74.0004 38.096C73.4884 38.064 72.9604 38.048 72.4164 38.048C71.9044 38.048 71.3924 38.064 70.8804 38.096L62.3364 16.88C61.8244 15.632 61.3124 14.88 60.8004 14.624C60.3204 14.336 59.9044 14.192 59.5524 14.192V13.184C60.5764 13.248 61.6324 13.312 62.7204 13.376C63.8404 13.408 65.0564 13.424 66.3684 13.424C67.3604 13.424 68.4004 13.408 69.4884 13.376C70.6084 13.312 71.6484 13.248 72.6084 13.184V14.192C71.9364 14.192 71.3284 14.224 70.7844 14.288C70.2724 14.352 69.9204 14.56 69.7284 14.912C69.5364 15.264 69.5684 15.888 69.8244 16.784L75.4404 31.664L74.9604 32.336L78.7524 21.824C79.3604 20.096 79.6164 18.688 79.5204 17.6C79.4244 16.48 79.0724 15.648 78.4644 15.104C77.8564 14.528 77.0404 14.208 76.0164 14.144V13.184C76.4964 13.216 77.0084 13.248 77.5524 13.28C78.1284 13.28 78.6724 13.296 79.1844 13.328C79.7284 13.328 80.2084 13.328 80.6244 13.328C81.2644 13.328 81.9364 13.312 82.6404 13.28C83.3444 13.248 83.9044 13.216 84.3204 13.184ZM95.8351 4.016C96.6351 4.048 97.7071 4.08 99.0511 4.112C100.427 4.144 101.787 4.16 103.131 4.16C104.667 4.16 106.155 4.144 107.595 4.112C109.035 4.08 110.059 4.064 110.667 4.064C113.643 4.064 116.107 4.4 118.059 5.072C120.043 5.712 121.515 6.656 122.475 7.904C123.467 9.152 123.963 10.656 123.963 12.416C123.963 13.504 123.739 14.608 123.291 15.728C122.843 16.816 122.075 17.84 120.987 18.8C119.931 19.728 118.475 20.48 116.619 21.056C114.763 21.6 112.427 21.872 109.611 21.872H105.003V20.912H109.131C111.019 20.912 112.443 20.56 113.403 19.856C114.395 19.12 115.067 18.16 115.419 16.976C115.803 15.76 115.995 14.416 115.995 12.944C115.995 10.416 115.547 8.464 114.651 7.088C113.755 5.68 112.219 4.976 110.043 4.976C108.795 4.976 107.979 5.248 107.595 5.792C107.243 6.336 107.067 7.44 107.067 9.104V32.912C107.067 34.064 107.147 34.928 107.307 35.504C107.499 36.08 107.851 36.464 108.363 36.656C108.875 36.848 109.643 36.976 110.667 37.04V38C109.803 37.936 108.715 37.904 107.403 37.904C106.091 37.872 104.763 37.856 103.419 37.856C101.883 37.856 100.427 37.872 99.0511 37.904C97.7071 37.904 96.6351 37.936 95.8351 38V37.04C96.8591 36.976 97.6271 36.848 98.1391 36.656C98.6511 36.464 98.9871 36.08 99.1471 35.504C99.3391 34.928 99.4351 34.064 99.4351 32.912V9.104C99.4351 7.92 99.3391 7.056 99.1471 6.512C98.9871 5.936 98.6351 5.552 98.0911 5.36C97.5791 5.136 96.8271 5.008 95.8351 4.976V4.016ZM104.907 21.056C106.283 21.088 107.467 21.152 108.459 21.248C109.483 21.344 110.379 21.44 111.147 21.536C111.915 21.6 112.603 21.648 113.211 21.68C116.123 21.936 118.267 22.56 119.643 23.552C121.051 24.544 121.963 26.032 122.379 28.016L123.483 32.96C123.771 34.24 124.075 35.136 124.395 35.648C124.715 36.16 125.179 36.416 125.787 36.416C126.203 36.384 126.539 36.288 126.795 36.128C127.083 35.936 127.387 35.664 127.707 35.312L128.379 35.888C127.515 36.88 126.587 37.584 125.595 38C124.603 38.448 123.403 38.672 121.995 38.672C120.267 38.672 118.843 38.304 117.723 37.568C116.603 36.832 115.867 35.472 115.515 33.488L114.651 28.688C114.427 27.344 114.155 26.176 113.835 25.184C113.515 24.16 113.067 23.36 112.491 22.784C111.947 22.176 111.179 21.872 110.187 21.872H105.003L104.907 21.056ZM134.83 0.799998C136.174 0.799998 137.23 1.136 137.998 1.808C138.798 2.448 139.198 3.344 139.198 4.496C139.198 5.648 138.798 6.56 137.998 7.232C137.23 7.872 136.174 8.192 134.83 8.192C133.486 8.192 132.414 7.872 131.614 7.232C130.846 6.56 130.462 5.648 130.462 4.496C130.462 3.344 130.846 2.448 131.614 1.808C132.414 1.136 133.486 0.799998 134.83 0.799998ZM138.574 12.656V33.536C138.574 34.88 138.798 35.792 139.246 36.272C139.726 36.752 140.526 36.992 141.646 36.992V38C141.07 37.968 140.174 37.936 138.958 37.904C137.742 37.84 136.51 37.808 135.262 37.808C134.014 37.808 132.75 37.84 131.47 37.904C130.19 37.936 129.23 37.968 128.59 38V36.992C129.71 36.992 130.494 36.752 130.942 36.272C131.422 35.792 131.662 34.88 131.662 33.536V18.416C131.662 16.976 131.438 15.92 130.99 15.248C130.574 14.544 129.774 14.192 128.59 14.192V13.184C129.614 13.28 130.606 13.328 131.566 13.328C132.91 13.328 134.158 13.28 135.31 13.184C136.494 13.056 137.582 12.88 138.574 12.656ZM156.21 12.512C157.458 12.512 158.594 12.656 159.618 12.944C160.674 13.2 161.538 13.536 162.21 13.952C163.042 14.464 163.682 15.104 164.13 15.872C164.61 16.608 164.85 17.472 164.85 18.464C164.85 19.584 164.498 20.512 163.794 21.248C163.09 21.952 162.178 22.304 161.058 22.304C159.938 22.304 159.042 21.984 158.37 21.344C157.698 20.704 157.362 19.84 157.362 18.752C157.362 17.728 157.682 16.88 158.322 16.208C158.962 15.504 159.698 15.04 160.53 14.816C160.274 14.496 159.89 14.224 159.378 14C158.866 13.776 158.29 13.664 157.65 13.664C156.658 13.664 155.778 13.952 155.01 14.528C154.274 15.104 153.65 15.904 153.138 16.928C152.626 17.952 152.226 19.152 151.938 20.528C151.682 21.904 151.554 23.408 151.554 25.04C151.554 27.504 151.858 29.44 152.466 30.848C153.106 32.256 153.906 33.248 154.866 33.824C155.858 34.4 156.882 34.688 157.938 34.688C158.546 34.688 159.202 34.592 159.906 34.4C160.642 34.208 161.378 33.824 162.114 33.248C162.882 32.672 163.586 31.856 164.226 30.8L165.042 31.088C164.69 32.272 164.114 33.456 163.314 34.64C162.514 35.824 161.474 36.8 160.194 37.568C158.914 38.304 157.346 38.672 155.49 38.672C153.41 38.672 151.522 38.224 149.826 37.328C148.162 36.4 146.818 34.992 145.794 33.104C144.802 31.184 144.306 28.72 144.306 25.712C144.306 22.832 144.818 20.416 145.842 18.464C146.898 16.48 148.322 14.992 150.114 14C151.906 13.008 153.938 12.512 156.21 12.512ZM177.287 0.463997V16.976C178.087 15.312 179.159 14.16 180.503 13.52C181.879 12.848 183.415 12.512 185.111 12.512C186.487 12.512 187.591 12.688 188.423 13.04C189.255 13.36 189.911 13.808 190.391 14.384C190.935 14.992 191.319 15.776 191.543 16.736C191.799 17.696 191.927 18.992 191.927 20.624V33.536C191.927 34.88 192.151 35.792 192.599 36.272C193.079 36.752 193.879 36.992 194.999 36.992V38C194.391 37.968 193.463 37.936 192.215 37.904C190.999 37.84 189.815 37.808 188.663 37.808C187.415 37.808 186.199 37.84 185.015 37.904C183.863 37.936 182.999 37.968 182.423 38V36.992C183.383 36.992 184.055 36.752 184.439 36.272C184.823 35.792 185.015 34.88 185.015 33.536V18.608C185.015 17.808 184.935 17.12 184.775 16.544C184.615 15.936 184.311 15.472 183.863 15.152C183.447 14.8 182.839 14.624 182.039 14.624C181.175 14.624 180.375 14.864 179.639 15.344C178.935 15.792 178.359 16.432 177.911 17.264C177.495 18.096 177.287 19.056 177.287 20.144V33.536C177.287 34.88 177.479 35.792 177.863 36.272C178.247 36.752 178.919 36.992 179.879 36.992V38C179.303 37.968 178.455 37.936 177.335 37.904C176.215 37.84 175.079 37.808 173.927 37.808C172.679 37.808 171.415 37.84 170.135 37.904C168.887 37.936 167.943 37.968 167.303 38V36.992C168.423 36.992 169.207 36.752 169.655 36.272C170.135 35.792 170.375 34.88 170.375 33.536V6.224C170.375 4.784 170.151 3.728 169.703 3.056C169.287 2.352 168.487 2 167.303 2V0.991999C168.327 1.088 169.319 1.136 170.279 1.136C171.591 1.136 172.839 1.088 174.023 0.991999C175.207 0.863998 176.295 0.687998 177.287 0.463997ZM203.37 38.336C201.93 38.336 200.73 38.064 199.77 37.52C198.81 36.976 198.106 36.256 197.658 35.36C197.21 34.432 196.986 33.424 196.986 32.336C196.986 30.96 197.29 29.84 197.898 28.976C198.538 28.112 199.354 27.408 200.346 26.864C201.338 26.32 202.378 25.872 203.466 25.52C204.586 25.168 205.642 24.832 206.634 24.512C207.658 24.16 208.474 23.76 209.082 23.312C209.722 22.832 210.042 22.224 210.042 21.488V17.744C210.042 16.912 209.898 16.176 209.61 15.536C209.354 14.864 208.938 14.352 208.362 14C207.818 13.648 207.098 13.472 206.202 13.472C205.562 13.472 204.922 13.568 204.282 13.76C203.642 13.92 203.114 14.208 202.698 14.624C203.594 14.944 204.282 15.44 204.762 16.112C205.274 16.752 205.53 17.488 205.53 18.32C205.53 19.408 205.146 20.272 204.378 20.912C203.642 21.552 202.762 21.872 201.738 21.872C200.586 21.872 199.706 21.52 199.098 20.816C198.522 20.08 198.234 19.2 198.234 18.176C198.234 17.248 198.458 16.48 198.906 15.872C199.386 15.264 200.042 14.688 200.874 14.144C201.77 13.632 202.842 13.232 204.09 12.944C205.37 12.656 206.746 12.512 208.218 12.512C209.69 12.512 211.018 12.672 212.202 12.992C213.386 13.28 214.378 13.824 215.178 14.624C215.914 15.36 216.394 16.272 216.618 17.36C216.842 18.416 216.954 19.76 216.954 21.392V34.448C216.954 35.248 217.034 35.808 217.194 36.128C217.354 36.416 217.626 36.56 218.01 36.56C218.298 36.56 218.57 36.48 218.826 36.32C219.114 36.16 219.418 35.968 219.738 35.744L220.218 36.56C219.546 37.136 218.762 37.584 217.866 37.904C217.002 38.192 216.026 38.336 214.938 38.336C213.754 38.336 212.81 38.176 212.106 37.856C211.402 37.504 210.89 37.04 210.57 36.464C210.282 35.888 210.138 35.216 210.138 34.448C209.37 35.664 208.442 36.624 207.354 37.328C206.266 38 204.938 38.336 203.37 38.336ZM206.778 35.264C207.418 35.264 207.994 35.12 208.506 34.832C209.05 34.512 209.562 34 210.042 33.296V23.456C209.754 23.936 209.354 24.368 208.842 24.752C208.33 25.136 207.786 25.536 207.21 25.952C206.634 26.336 206.074 26.768 205.53 27.248C205.018 27.728 204.602 28.32 204.282 29.024C203.962 29.728 203.802 30.576 203.802 31.568C203.802 32.816 204.074 33.744 204.618 34.352C205.162 34.96 205.882 35.264 206.778 35.264ZM238.102 12.512C239.126 12.512 239.958 12.736 240.598 13.184C241.238 13.6 241.702 14.144 241.99 14.816C242.31 15.488 242.47 16.192 242.47 16.928C242.47 18.112 242.118 19.088 241.414 19.856C240.742 20.592 239.846 20.96 238.726 20.96C237.606 20.96 236.726 20.688 236.086 20.144C235.478 19.568 235.174 18.816 235.174 17.888C235.174 16.992 235.366 16.256 235.75 15.68C236.166 15.072 236.678 14.56 237.286 14.144C236.838 14.016 236.39 14.032 235.942 14.192C235.334 14.288 234.758 14.544 234.214 14.96C233.67 15.344 233.206 15.84 232.822 16.448C232.438 17.024 232.134 17.664 231.91 18.368C231.686 19.04 231.574 19.696 231.574 20.336V33.056C231.574 34.592 231.942 35.632 232.678 36.176C233.446 36.72 234.582 36.992 236.086 36.992V38C235.35 37.968 234.278 37.936 232.87 37.904C231.462 37.84 229.99 37.808 228.454 37.808C227.174 37.808 225.878 37.84 224.566 37.904C223.254 37.936 222.262 37.968 221.59 38V36.992C222.71 36.992 223.494 36.752 223.942 36.272C224.422 35.792 224.662 34.88 224.662 33.536V18.416C224.662 16.976 224.438 15.92 223.99 15.248C223.574 14.544 222.774 14.192 221.59 14.192V13.184C222.614 13.28 223.606 13.328 224.566 13.328C225.91 13.328 227.158 13.28 228.31 13.184C229.494 13.056 230.582 12.88 231.574 12.656V17.12C231.958 16.256 232.47 15.472 233.109 14.768C233.75 14.064 234.486 13.52 235.318 13.136C236.15 12.72 237.078 12.512 238.102 12.512ZM266.956 0.415998V32.72C266.956 34.16 267.18 35.232 267.628 35.936C268.076 36.608 268.876 36.944 270.028 36.944V37.952C269.036 37.856 268.044 37.808 267.052 37.808C265.708 37.808 264.444 37.856 263.26 37.952C262.108 38.048 261.036 38.224 260.044 38.48V6.176C260.044 4.736 259.82 3.68 259.372 3.008C258.956 2.304 258.156 1.952 256.972 1.952V0.943999C257.996 1.04 258.988 1.088 259.948 1.088C261.26 1.088 262.508 1.04 263.692 0.943999C264.876 0.815999 265.964 0.639998 266.956 0.415998ZM254.716 12.512C256.124 12.512 257.356 12.752 258.412 13.232C259.5 13.68 260.348 14.448 260.956 15.536L260.38 16.064C259.964 15.296 259.404 14.752 258.7 14.432C258.028 14.08 257.308 13.904 256.54 13.904C254.908 13.904 253.612 14.864 252.652 16.784C251.692 18.672 251.228 21.6 251.26 25.568C251.26 28.288 251.436 30.464 251.788 32.096C252.172 33.696 252.7 34.848 253.372 35.552C254.076 36.256 254.876 36.608 255.772 36.608C256.86 36.608 257.836 36.176 258.7 35.312C259.564 34.448 260.028 33.28 260.092 31.808L260.332 33.488C259.852 35.184 259.068 36.48 257.98 37.376C256.924 38.24 255.532 38.672 253.804 38.672C251.916 38.672 250.22 38.208 248.716 37.28C247.244 36.352 246.092 34.928 245.26 33.008C244.428 31.056 244.012 28.544 244.012 25.472C244.012 22.56 244.476 20.16 245.404 18.272C246.332 16.352 247.596 14.912 249.196 13.952C250.828 12.992 252.668 12.512 254.716 12.512Z" fill="#141414"/>
</svg>
